<svg width="50" height="50" viewBox="0 0 50 50" fill="none" xmlns="http://www.w3.org/2000/svg">
<rect width="50" height="50" rx="25" fill="black"/>
<path d="M15.2988 29.2188C13.5723 29.2188 12.2051 28.3281 11.4629 26.6953C11.0645 25.8203 10.8691 24.7734 10.8691 23.5156C10.8691 19.7422 12.541 17.5078 15.3613 17.5078C16.9629 17.5078 18.2441 18.2266 18.8457 19.3125C18.9707 19.5391 19.0332 19.7422 19.0332 19.9609C19.0332 20.375 18.7285 20.6797 18.2676 20.6797C17.916 20.6797 17.6895 20.5156 17.4082 20.1172C16.877 19.3359 16.2363 18.9766 15.3457 18.9766C13.5801 18.9766 12.5957 20.5703 12.5488 23.3203V23.4219H12.5801C13.0332 22.3984 14.1738 21.6016 15.7051 21.6016C17.8613 21.6016 19.416 23.1797 19.416 25.3125C19.416 27.5781 17.6816 29.2188 15.2988 29.2188ZM15.2754 27.7422C16.6191 27.7422 17.6738 26.6953 17.6738 25.375C17.6738 24.0078 16.6816 23.0234 15.2988 23.0234C13.916 23.0234 12.8926 24 12.8926 25.3359C12.8926 26.6797 13.9395 27.7422 15.2754 27.7422ZM25.0254 29.2109C22.3066 29.2109 20.7051 26.9453 20.7051 23.3516C20.7051 19.7812 22.3301 17.5156 25.0254 17.5156C27.7207 17.5156 29.3301 19.7734 29.3301 23.3438C29.3301 26.9375 27.7363 29.2109 25.0254 29.2109ZM25.0254 27.7422C26.6504 27.7422 27.5645 26.0859 27.5645 23.3516C27.5645 20.6562 26.6348 18.9844 25.0254 18.9844C23.416 18.9844 22.4785 20.6641 22.4785 23.3516C22.4785 26.0781 23.3926 27.7422 25.0254 27.7422ZM32.2246 29.1113C31.9727 29.1113 31.7617 28.9531 31.7617 28.707C31.7617 28.5781 31.8027 28.4785 31.873 28.3789L34.5391 24.5293L37.1582 20.7207C37.3105 20.498 37.4219 20.4336 37.627 20.4336C37.8672 20.4336 38.0664 20.6035 38.0664 20.8379C38.0664 20.9551 38.0371 21.0547 37.9609 21.1602L35.377 24.9043L32.6758 28.8301C32.5293 29.041 32.418 29.1113 32.2246 29.1113ZM32.1133 24.8223C31.0293 24.8223 30.3672 23.9902 30.3672 22.625C30.3672 21.2656 31.041 20.4453 32.1133 20.4453C33.1914 20.4453 33.8594 21.2656 33.8594 22.625C33.8594 23.9844 33.1973 24.8223 32.1133 24.8223ZM32.1133 24.0605C32.5938 24.0605 32.875 23.5625 32.875 22.625C32.875 21.6934 32.5879 21.2129 32.1133 21.2129C31.6387 21.2129 31.3516 21.6992 31.3516 22.6309C31.3516 23.5625 31.6328 24.0605 32.1133 24.0605ZM37.7207 29.0996C36.6426 29.0996 35.9746 28.2617 35.9746 26.9023C35.9746 25.543 36.6484 24.7227 37.7207 24.7227C38.7988 24.7227 39.4668 25.5371 39.4668 26.9023C39.4668 28.2559 38.8047 29.0996 37.7207 29.0996ZM37.7207 28.332C38.2012 28.332 38.4883 27.8398 38.4883 26.9023C38.4883 25.9707 38.2012 25.4844 37.7207 25.4844C37.2461 25.4844 36.959 25.9707 36.959 26.9023C36.959 27.8398 37.2461 28.332 37.7207 28.332Z" fill="#F2F2F2"/>
<path d="M19.7852 36.8931C19.3281 36.8931 18.959 36.5239 18.959 36.0728C18.959 35.6157 19.3281 35.2466 19.7852 35.2466C20.2363 35.2466 20.6055 35.6157 20.6055 36.0728C20.6055 36.5239 20.2363 36.8931 19.7852 36.8931ZM22.5156 36.6294C22.2109 36.6294 21.9648 36.3774 21.9648 36.0728C21.9648 35.7622 22.2051 35.5161 22.5156 35.5161H30.4844C30.7949 35.5161 31.041 35.7622 31.041 36.0728C31.041 36.3774 30.7949 36.6294 30.4844 36.6294H22.5156ZM19.7852 40.4907C19.3281 40.4907 18.959 40.1216 18.959 39.6704C18.959 39.2134 19.3281 38.8442 19.7852 38.8442C20.2363 38.8442 20.6055 39.2134 20.6055 39.6704C20.6055 40.1216 20.2363 40.4907 19.7852 40.4907ZM22.5156 40.2271C22.2109 40.2271 21.9648 39.9751 21.9648 39.6704C21.9648 39.3599 22.2051 39.1138 22.5156 39.1138H30.4844C30.7949 39.1138 31.041 39.3599 31.041 39.6704C31.041 39.9751 30.7949 40.2271 30.4844 40.2271H22.5156ZM19.7852 44.0884C19.3281 44.0884 18.959 43.7192 18.959 43.2681C18.959 42.811 19.3281 42.4419 19.7852 42.4419C20.2363 42.4419 20.6055 42.811 20.6055 43.2681C20.6055 43.7192 20.2363 44.0884 19.7852 44.0884ZM22.5156 43.8247C22.2109 43.8247 21.9648 43.5728 21.9648 43.2681C21.9648 42.9575 22.2051 42.7114 22.5156 42.7114H30.4844C30.7949 42.7114 31.041 42.9575 31.041 43.2681C31.041 43.5728 30.7949 43.8247 30.4844 43.8247H22.5156Z" fill="#7AC5F4"/>
<path opacity="0.3" d="M7.24893 38.5276C6.07083 39.4253 4.37407 39.2044 3.60758 37.937C1.67243 34.737 0.473708 31.1332 0.114321 27.3881C-0.330745 22.7501 0.529134 18.0801 2.59695 13.9048C4.66477 9.72954 7.85823 6.21521 11.8171 3.7583C15.7759 1.30139 20.3425 -0.000331517 25.0018 6.33074e-08C29.661 0.000331644 34.2275 1.3027 38.186 3.76018C42.1444 6.21765 45.3374 9.73244 47.4046 13.908C49.4719 18.0836 50.3311 22.7537 49.8853 27.3916C49.5254 31.1367 48.3262 34.7403 46.3906 37.94C45.6239 39.2073 43.9271 39.428 42.7491 38.5301V38.5301C41.5712 37.6321 41.3625 35.9563 42.0917 34.667C43.4417 32.2801 44.2818 29.6278 44.546 26.8785C44.8961 23.2357 44.2213 19.5675 42.5976 16.2879C40.9739 13.0082 38.466 10.2475 35.3568 8.31731C32.2477 6.3871 28.661 5.36416 25.0014 5.3639C21.3418 5.36364 17.755 6.38607 14.6455 8.31583C11.5361 10.2456 9.02781 13.0059 7.40366 16.2853C5.7795 19.5648 5.10412 23.2328 5.45369 26.8757C5.71753 29.6251 6.55727 32.2775 7.90693 34.6646C8.63595 35.9539 8.42703 37.6298 7.24893 38.5276V38.5276Z" fill="#7AC5F4"/>
<path d="M7.24893 38.5276C6.07083 39.4253 4.37401 39.2044 3.6075 37.9369C0.962568 33.5634 -0.289775 28.4628 0.056485 23.3204C0.463077 17.2821 3.04627 11.5962 7.32676 7.31791C11.6072 3.03957 17.2944 0.459216 23.3329 0.0556458C28.4754 -0.288041 33.5754 0.966855 37.9476 3.61398C39.2147 4.38112 39.4348 6.07805 38.5364 7.2557V7.2557C37.6381 8.43335 35.9621 8.6414 34.6731 7.91173C31.3523 6.03191 27.5366 5.15057 23.6906 5.4076C18.9477 5.72459 14.4807 7.75131 11.1187 11.1117C7.75658 14.4721 5.72762 18.938 5.40826 23.6808C5.1493 27.5267 6.02874 31.3428 7.90689 34.6646C8.63592 35.9539 8.42703 37.6298 7.24893 38.5276V38.5276Z" fill="#7AC5F4"/>
</svg>
